<svg width="40" height="36" viewBox="0 0 40 36" fill="none" xmlns="http://www.w3.org/2000/svg">
<path d="M28.8125 1.6875C30.125 1.6875 31.3438 1.9375 32.4688 2.4375C33.6562 2.9375 34.6875 3.625 35.5625 4.5C36.4375 5.375 37.125 6.40625 37.625 7.59375C38.125 8.71875 38.375 9.9375 38.375 11.25C38.375 11.9375 38.3125 12.5937 38.1875 13.2188C38.0625 13.8438 37.875 14.4687 37.625 15.0938C37.375 15.6562 37.0625 16.1875 36.6875 16.6875C36.3125 17.1875 35.9062 17.6562 35.4688 18.0938L20 33.6562L4.25 17.8125C3.875 17.4375 3.5 17 3.125 16.5C2.8125 16 2.53125 15.4688 2.28125 14.9062C2.09375 14.3438 1.9375 13.75 1.8125 13.125C1.6875 12.5 1.625 11.875 1.625 11.25C1.625 9.9375 1.875 8.71875 2.375 7.59375C2.875 6.40625 3.5625 5.375 4.4375 4.5C5.3125 3.625 6.3125 2.9375 7.4375 2.4375C8.625 1.9375 9.875 1.6875 11.1875 1.6875C12.1875 1.6875 13.125 1.84375 14 2.15625C14.9375 2.40625 15.7812 2.78125 16.5312 3.28125C17.2812 3.84375 17.9375 4.5 18.5 5.25C19.125 5.9375 19.625 6.71875 20 7.59375C20.375 6.71875 20.8438 5.9375 21.4062 5.25C22.0312 4.5 22.7188 3.84375 23.4688 3.28125C24.2188 2.78125 25.0312 2.40625 25.9062 2.15625C26.8438 1.84375 27.8125 1.6875 28.8125 1.6875ZM28.8125 0.09375C27.9375 0.09375 27.0625 0.1875 26.1875 0.375C25.375 0.5625 24.5938 0.84375 23.8438 1.21875C23.0938 1.59375 22.375 2.0625 21.6875 2.625C21.0625 3.125 20.5 3.71875 20 4.40625C19.5 3.71875 18.9062 3.125 18.2188 2.625C17.5938 2.0625 16.9062 1.59375 16.1562 1.21875C15.4062 0.84375 14.5938 0.5625 13.7188 0.375C12.9062 0.1875 12.0625 0.09375 11.1875 0.09375C9.625 0.09375 8.15625 0.40625 6.78125 1.03125C5.46875 1.59375 4.3125 2.375 3.3125 3.375C2.25 4.375 1.4375 5.5625 0.875 6.9375C0.3125 8.25 0.03125 9.6875 0.03125 11.25C0.03125 11.9375 0.09375 12.6562 0.21875 13.4062C0.34375 14.0937 0.53125 14.75 0.78125 15.375C1.09375 16.0625 1.4375 16.7188 1.8125 17.3438C2.1875 17.9062 2.625 18.4375 3.125 18.9375L20 35.9062L36.5938 19.2188C37.1562 18.7188 37.625 18.1562 38 17.5312C38.4375 16.9062 38.8125 16.2812 39.125 15.6562C39.375 14.9688 39.5625 14.25 39.6875 13.5C39.875 12.75 39.9688 12 39.9688 11.25C39.9688 9.6875 39.6875 8.25 39.125 6.9375C38.5625 5.5625 37.75 4.375 36.6875 3.375C35.6875 2.375 34.5 1.59375 33.125 1.03125C31.8125 0.40625 30.375 0.09375 28.8125 0.09375Z" fill="white"/>
</svg>
