<svg width="40" height="40" viewBox="0 0 40 40" fill="none" xmlns="http://www.w3.org/2000/svg">
<path d="M20 0.78125C17.375 0.78125 14.875 1.28125 12.5 2.28125C10.1875 3.28125 8.15625 4.65625 6.40625 6.40625C4.65625 8.15625 3.28125 10.2188 2.28125 12.5938C1.28125 14.9063 0.78125 17.375 0.78125 20C0.78125 22.625 1.28125 25.125 2.28125 27.5C3.28125 29.8125 4.65625 31.8438 6.40625 33.5938C8.15625 35.3438 10.1875 36.7188 12.5 37.7188C14.875 38.7188 17.375 39.2188 20 39.2188C22.625 39.2188 25.0938 38.7188 27.4062 37.7188C29.7812 36.7188 31.8438 35.3438 33.5938 33.5938C35.3438 31.8438 36.7188 29.8125 37.7188 27.5C38.7188 25.125 39.2188 22.625 39.2188 20C39.2188 17.375 38.7188 14.9063 37.7188 12.5938C36.7188 10.2188 35.3438 8.15625 33.5938 6.40625C31.8438 4.65625 29.7812 3.28125 27.4062 2.28125C25.0938 1.28125 22.625 0.78125 20 0.78125ZM20 37.625C17.5625 37.625 15.2812 37.1562 13.1562 36.2188C11.0312 35.2812 9.15625 34.0312 7.53125 32.4688C5.96875 30.8438 4.71875 28.9688 3.78125 26.8438C2.84375 24.7188 2.375 22.4375 2.375 20C2.375 17.5625 2.84375 15.2813 3.78125 13.1562C4.71875 11.0312 5.96875 9.15625 7.53125 7.53125C9.15625 5.96875 11.0312 4.71875 13.1562 3.78125C15.2812 2.84375 17.5625 2.375 20 2.375C22.4375 2.375 24.7188 2.84375 26.8438 3.78125C28.9688 4.71875 30.8438 5.96875 32.4688 7.53125C34.0312 9.15625 35.2812 11.0312 36.2188 13.1562C37.1562 15.2813 37.625 17.5625 37.625 20C37.625 22.4375 37.1562 24.7188 36.2188 26.8438C35.2812 28.9688 34.0312 30.8438 32.4688 32.4688C30.8438 34.0312 28.9688 35.2812 26.8438 36.2188C24.7188 37.1562 22.4375 37.625 20 37.625ZM20 21.5938H10.4375V23.1875H21.5938V7.25H20V21.5938Z" fill="white"/>
</svg>
